<?xml version="1.0" encoding="UTF-8"?>
<svg version="1.1" xmlns="http://www.w3.org/2000/svg" width="128" height="128">
<path d="M0 0 C3.21954645 2.53453657 4.70432435 4.11297305 6 8 C6.66 8.33 7.32 8.66 8 9 C10.39501368 17.13617088 11.50004088 25.55241483 12 34 C12.81984375 33.98839844 13.6396875 33.97679687 14.484375 33.96484375 C15.56203125 33.95582031 16.6396875 33.94679687 17.75 33.9375 C19.35101563 33.92009766 19.35101563 33.92009766 20.984375 33.90234375 C23.53368501 33.98489913 25.57933591 34.25382442 28 35 C27.82082031 34.27296875 27.64164062 33.5459375 27.45703125 32.796875 C26.02738181 24.04790921 30.63831989 15.62495688 34.5 8.0625 C36.59802305 5.17771831 38.71823852 4.21437912 42.21875 3.62890625 C48.29301533 3.45208688 48.29301533 3.45208688 51.5 5.9375 C54.43332415 11.92637014 54.62816659 16.94463555 52.625 23.3125 C50.33154656 29.10734678 46.69066768 33.64277993 42.73046875 38.37109375 C40.77676491 40.77297862 40.77676491 40.77297862 41.11328125 43.12890625 C41.99521999 44.98991356 42.91697249 46.74804374 44 48.5 C47.43970764 54.06423295 47.39618021 59.59856194 47 66 C45.89260053 70.53027054 43.39232924 72.87548623 40 76 C40.32097656 76.54527344 40.64195313 77.09054688 40.97265625 77.65234375 C42 80 42 80 42.18359375 82.62890625 C42.51065952 86.40777388 43.10891731 88.67057263 45 92 C49.4197888 95.57935926 54.51049784 98.05857841 59.55859375 100.625 C65.93623379 103.91939272 65.93623379 103.91939272 68 107 C67.75 109.75 67.75 109.75 67 112 C64.64575325 112.02726927 62.29183038 112.04696719 59.9375 112.0625 C57.97103516 112.07990234 57.97103516 112.07990234 55.96484375 112.09765625 C52.1836481 112.00452335 48.72079293 111.61448726 45 111 C44.938125 111.99 44.87625 112.98 44.8125 114 C44.15287215 118.62681823 42.01775141 122.46166614 39 126 C35.33025253 128.4918176 31.54971513 128.27348578 27.27734375 128.23046875 C26.53545303 128.23001053 25.79356232 128.22955231 25.02919006 128.2290802 C23.46500036 128.22606615 21.90081343 128.21820522 20.33666992 128.20581055 C17.94243747 128.18753768 15.54859185 128.18530113 13.15429688 128.18554688 C11.63280916 128.18063178 10.11132406 128.17480349 8.58984375 128.16796875 C7.51632912 128.16629951 7.51632912 128.16629951 6.42112732 128.16459656 C3.34412127 128.13519006 0.94224278 127.98074759 -2 127 C-2 126.34 -2 125.68 -2 125 C-2.99 124.67 -3.98 124.34 -5 124 C-5.33 123.34 -5.66 122.68 -6 122 C-7.27875 121.71125 -8.5575 121.4225 -9.875 121.125 C-12.58944064 120.48659475 -13.86739632 120.10849392 -16.0625 118.3125 C-17.46349679 114.85670791 -16.96859912 112.55153012 -16 109 C-14.125 107.0625 -14.125 107.0625 -12 106 C-11.01 106 -10.02 106 -9 106 C-9.14107747 104.54119891 -9.28802415 103.08296449 -9.4375 101.625 C-9.51871094 100.81289062 -9.59992187 100.00078125 -9.68359375 99.1640625 C-9.89090114 96.95727195 -9.89090114 96.95727195 -11 95 C-13.01669827 93.86649466 -13.01669827 93.86649466 -15 93 C-15 92.34 -15 91.68 -15 91 C-15.66 91 -16.32 91 -17 91 C-17.99 88.03 -17.99 88.03 -19 85 C-19.55429687 85.28875 -20.10859375 85.5775 -20.6796875 85.875 C-21.40414063 86.24625 -22.12859375 86.6175 -22.875 87 C-23.95394531 87.556875 -23.95394531 87.556875 -25.0546875 88.125 C-27 89 -27 89 -29 89 C-30.125 86.6875 -30.125 86.6875 -31 84 C-30.34 83.01 -29.68 82.02 -29 81 C-29.93972656 80.81824219 -29.93972656 80.81824219 -30.8984375 80.6328125 C-31.71570312 80.46523437 -32.53296875 80.29765625 -33.375 80.125 C-34.18710937 79.96257812 -34.99921875 79.80015625 -35.8359375 79.6328125 C-38 79 -38 79 -40 77 C-39.46428571 73.46428571 -39.46428571 73.46428571 -38 72 C-36.33382885 71.95936168 -34.66611905 71.957279 -33 72 C-33.495 71.071875 -33.99 70.14375 -34.5 69.1875 C-36 66 -36 66 -36 63 C-30.52909415 63.43767247 -27.37801467 64.716489 -23 68 C-21.515 68.99 -21.515 68.99 -20 70 C-19.67 68.68 -19.34 67.36 -19 66 C-17.125 66.1875 -17.125 66.1875 -15 67 C-13.75 69.5625 -13.75 69.5625 -13 72 C-11.68 72 -10.36 72 -9 72 C-9.3196875 71.30132812 -9.639375 70.60265625 -9.96875 69.8828125 C-12.17373393 63.71888014 -12.18078133 56.9229771 -9.7265625 50.84765625 C-7.85440485 47.4458088 -5.77819212 44.20746034 -3.67578125 40.9453125 C-2.76703659 38.9915264 -2.76703659 38.9915264 -3.72265625 37.02734375 C-4.16480469 36.33769531 -4.60695312 35.64804687 -5.0625 34.9375 C-10.31464553 26.20311003 -15.15894388 17.69080083 -13.3125 7.25 C-12.61492917 4.57369884 -12.10267459 3.13031775 -10.375 0.9375 C-6.87745241 -0.44311089 -3.65202075 -0.78982195 0 0 Z " fill="#F3EFDC" transform="translate(50,0)"/>
<path d="M0 0 C0.33 0 0.66 0 1 0 C1 3.96 1 7.92 1 12 C1.66 12 2.32 12 3 12 C3.144375 11.360625 3.28875 10.72125 3.4375 10.0625 C4 8 4 8 5 7 C7.33297433 6.95907063 9.66705225 6.95758277 12 7 C12.33 5.68 12.66 4.36 13 3 C13.495 3.99 13.495 3.99 14 5 C14.66 5 15.32 5 16 5 C16.33 4.34 16.66 3.68 17 3 C17.495 4.98 17.495 4.98 18 7 C17.360625 7.268125 16.72125 7.53625 16.0625 7.8125 C13.66868314 8.88667752 13.66868314 8.88667752 13 12 C9.7 12.66 6.4 13.32 3 14 C3.495 15.485 3.495 15.485 4 17 C6.27846056 18.04842965 6.27846056 18.04842965 9.125 18.8125 C19.42204019 22.01957338 29.45619139 25.9579879 39 31 C40.33191591 31.66949401 41.66492604 32.33682601 43 33 C42.67 33.53625 42.34 34.0725 42 34.625 C40.77300796 37.5391061 40.85766714 39.86867708 41 43 C46.51104321 43.46755956 46.51104321 43.46755956 51.5 41.5625 C53.71352426 37.78106272 53.32917236 34.2792407 53 30 C55 33 55 33 55.67578125 35.9375 C57.47453395 40.09744724 60.26384779 41.20061809 64.1875 43 C69.84144803 45.78091676 74.44983286 48.56081255 79 53 C78.67 54.65 78.34 56.3 78 58 C75.64575325 58.02726927 73.29183038 58.04696719 70.9375 58.0625 C68.97103516 58.07990234 68.97103516 58.07990234 66.96484375 58.09765625 C63.1836481 58.00452335 59.72079293 57.61448726 56 57 C55.9071875 58.485 55.9071875 58.485 55.8125 60 C55.15287215 64.62681823 53.01775141 68.46166614 50 72 C46.33025253 74.4918176 42.54971513 74.27348578 38.27734375 74.23046875 C37.53545303 74.23001053 36.79356232 74.22955231 36.02919006 74.2290802 C34.46500036 74.22606615 32.90081343 74.21820522 31.33666992 74.20581055 C28.94243747 74.18753768 26.54859185 74.18530113 24.15429688 74.18554688 C22.63280916 74.18063178 21.11132406 74.17480349 19.58984375 74.16796875 C18.51632912 74.16629951 18.51632912 74.16629951 17.42112732 74.16459656 C14.34412127 74.13519006 11.94224278 73.98074759 9 73 C9 72.34 9 71.68 9 71 C8.01 70.67 7.02 70.34 6 70 C5.67 69.34 5.34 68.68 5 68 C3.72125 67.71125 2.4425 67.4225 1.125 67.125 C-1.58944064 66.48659475 -2.86739632 66.10849392 -5.0625 64.3125 C-6.46349679 60.85670791 -5.96859912 58.55153012 -5 55 C-3.125 53.0625 -3.125 53.0625 -1 52 C-0.01 52 0.98 52 2 52 C1.85892253 50.54119891 1.71197585 49.08296449 1.5625 47.625 C1.48128906 46.81289062 1.40007813 46.00078125 1.31640625 45.1640625 C1.10909886 42.95727195 1.10909886 42.95727195 0 41 C-2.01669827 39.86649466 -2.01669827 39.86649466 -4 39 C-4 38.34 -4 37.68 -4 37 C-4.66 37 -5.32 37 -6 37 C-6.66 35.02 -7.32 33.04 -8 31 C-8.55429687 31.28875 -9.10859375 31.5775 -9.6796875 31.875 C-10.40414063 32.24625 -11.12859375 32.6175 -11.875 33 C-12.59429688 33.37125 -13.31359375 33.7425 -14.0546875 34.125 C-16 35 -16 35 -18 35 C-19.125 32.6875 -19.125 32.6875 -20 30 C-19.34 29.01 -18.68 28.02 -18 27 C-18.62648438 26.87882812 -19.25296875 26.75765625 -19.8984375 26.6328125 C-20.71570312 26.46523437 -21.53296875 26.29765625 -22.375 26.125 C-23.18710937 25.96257812 -23.99921875 25.80015625 -24.8359375 25.6328125 C-27 25 -27 25 -29 23 C-28.46428571 19.46428571 -28.46428571 19.46428571 -27 18 C-25.33382885 17.95936168 -23.66611905 17.957279 -22 18 C-22.7425 16.6078125 -22.7425 16.6078125 -23.5 15.1875 C-25 12 -25 12 -25 9 C-19.52909415 9.43767247 -16.37801467 10.716489 -12 14 C-11.01 14.66 -10.02 15.32 -9 16 C-8.67 14.68 -8.34 13.36 -8 12 C-6.125 12.1875 -6.125 12.1875 -4 13 C-2.75 15.5625 -2.75 15.5625 -2 18 C-0.68 18 0.64 18 2 18 C1.50886719 16.97326172 1.50886719 16.97326172 1.0078125 15.92578125 C-0.16848212 12.51087941 -0.19777146 9.78968716 -0.125 6.1875 C-0.10695313 5.02605469 -0.08890625 3.86460938 -0.0703125 2.66796875 C-0.04710938 1.78753906 -0.02390625 0.90710937 0 0 Z " fill="#D86431" transform="translate(39,54)"/>
<path d="M0 0 C0.125 3.375 0.125 3.375 0 7 C-0.66 7.66 -1.32 8.32 -2 9 C7.04427899 12.72411488 16.03250593 15.27141806 25.875 14.875 C30.75717463 14.77439761 34.13208451 15.01264443 37.87890625 18.3203125 C39.71560805 21.07216538 39.82322386 23.40025269 39.5625 26.6484375 C38.48558763 31.15052949 36.29549029 35.4497174 32.38989258 38.08740234 C29.03884248 39.36702491 25.81211214 39.26605911 22.27734375 39.23046875 C21.53545303 39.23001053 20.79356232 39.22955231 20.02919006 39.2290802 C18.46500036 39.22606615 16.90081343 39.21820522 15.33666992 39.20581055 C12.94243747 39.18753768 10.54859185 39.18530113 8.15429688 39.18554688 C6.63280916 39.18063178 5.11132406 39.17480349 3.58984375 39.16796875 C2.51632912 39.16629951 2.51632912 39.16629951 1.42112732 39.16459656 C-1.65587873 39.13519006 -4.05775722 38.98074759 -7 38 C-7 37.34 -7 36.68 -7 36 C-7.99 35.67 -8.98 35.34 -10 35 C-10.33 34.34 -10.66 33.68 -11 33 C-12.27875 32.71125 -13.5575 32.4225 -14.875 32.125 C-17.58944064 31.48659475 -18.86739632 31.10849392 -21.0625 29.3125 C-22.46349679 25.85670791 -21.96859912 23.55153012 -21 20 C-19.125 18.0625 -19.125 18.0625 -17 17 C-16.01 17 -15.02 17 -14 17 C-14.03480469 16.18015625 -14.06960937 15.3603125 -14.10546875 14.515625 C-14.13253906 13.43796875 -14.15960938 12.3603125 -14.1875 11.25 C-14.22230469 10.18265625 -14.25710937 9.1153125 -14.29296875 8.015625 C-13.96720469 4.66242693 -13.28115474 3.41501223 -11 1 C-7.36958374 -1.7228122 -4.27543191 -0.82219845 0 0 Z " fill="#CAB6A2" transform="translate(55,89)"/>
<path d="M0 0 C3.21954645 2.53453657 4.70432435 4.11297305 6 8 C6.66 8.33 7.32 8.66 8 9 C10.8057848 17.90643614 11.41585806 26.72790537 11 36 C10.34 36 9.68 36 9 36 C9 35.01 9 34.02 9 33 C6.72826908 33.84566739 6.72826908 33.84566739 6.125 36.5 C5.75375 37.325 5.3825 38.15 5 39 C2.9375 39.6875 2.9375 39.6875 1 40 C0.67 40.66 0.34 41.32 0 42 C-0.99 41.67 -1.98 41.34 -3 41 C-3.69643985 39.01017187 -4.354876 37.00705243 -5 35 C-5.78388218 33.50547031 -6.5988541 32.02700105 -7.4375 30.5625 C-12.22042798 22.13946754 -15.25920402 14.7187272 -12.71484375 4.95703125 C-12 3 -12 3 -10.375 0.9375 C-6.87745241 -0.44311089 -3.65202075 -0.78982195 0 0 Z " fill="#E0DECC" transform="translate(50,0)"/>
<path d="M0 0 C0.61746094 0.19335938 1.23492187 0.38671875 1.87109375 0.5859375 C13.21817704 4.1705163 13.21817704 4.1705163 25 5 C25 4.34 25 3.68 25 3 C30.55311087 2.51288501 34.27099488 2.72174813 38.703125 6.3203125 C40.79187796 9.02562506 40.83025555 11.31264956 40.5625 14.6484375 C39.47933701 19.17666057 37.28102249 23.51897405 33.30078125 26.10327148 C30.28616445 27.2782171 27.93083808 27.12881312 24.703125 26.9765625 C23.49785156 26.925 22.29257813 26.8734375 21.05078125 26.8203125 C19.79652344 26.75585938 18.54226562 26.69140625 17.25 26.625 C15.98027344 26.56828125 14.71054688 26.5115625 13.40234375 26.453125 C10.26765385 26.31171042 7.13377164 26.16030009 4 26 C5.33333333 22 6.66666667 18 8 14 C8.33 14 8.66 14 9 14 C9.33 15.98 9.66 17.96 10 20 C12.64 20.33 15.28 20.66 18 21 C17.95875 19.96875 17.9175 18.9375 17.875 17.875 C18 14 18 14 20 8 C15.38 7.01 10.76 6.02 6 5 C5.67 5.66 5.34 6.32 5 7 C4.649375 6.525625 4.29875 6.05125 3.9375 5.5625 C1.15836457 3.32126175 -1.5144717 3.32882342 -5 3 C-4.360625 2.690625 -3.72125 2.38125 -3.0625 2.0625 C-1.06389179 1.1654837 -1.06389179 1.1654837 0 0 Z " fill="#E8D4BD" transform="translate(54,101)"/>
<path d="M0 0 C11.88529291 2.81688855 23.20561044 7.29730363 34 13 C35.33191591 13.66949401 36.66492604 14.33682601 38 15 C37.7834375 15.61488281 37.566875 16.22976562 37.34375 16.86328125 C37.0653125 17.67152344 36.786875 18.47976562 36.5 19.3125 C36.2215625 20.11300781 35.943125 20.91351563 35.65625 21.73828125 C34.86066893 24.08769422 34.86066893 24.08769422 35 27 C18.07862408 23.16216216 18.07862408 23.16216216 13 20 C12.23046875 17.87109375 12.23046875 17.87109375 12 16 C11.26394531 15.96261719 10.52789062 15.92523438 9.76953125 15.88671875 C0.07732865 15.23374341 0.07732865 15.23374341 -4 12 C-3.52309796 10.37433394 -3.04340334 8.74948689 -2.5625 7.125 C-2.29566406 6.22007813 -2.02882812 5.31515625 -1.75390625 4.3828125 C-1 2 -1 2 0 0 Z " fill="#F07D2B" transform="translate(44,72)"/>
<path d="M0 0 C2 3 2 3 2.67578125 5.9375 C4.47453395 10.09744724 7.26384779 11.20061809 11.1875 13 C16.84144803 15.78091676 21.44983286 18.56081255 26 23 C25.505 25.475 25.505 25.475 25 28 C22.64575325 28.02726927 20.29183038 28.04696719 17.9375 28.0625 C15.97103516 28.07990234 15.97103516 28.07990234 13.96484375 28.09765625 C10.1836481 28.00452335 6.72079293 27.61448726 3 27 C2.67 27.99 2.34 28.98 2 30 C2 28.35 2 26.7 2 25 C1.1028125 24.566875 1.1028125 24.566875 0.1875 24.125 C-2 23 -2 23 -5 21 C-6.9896995 20.60986284 -8.99019869 20.26797351 -11 20 C-10.01 18.68 -9.02 17.36 -8 16 C-8.66 15.34 -9.32 14.68 -10 14 C-7.98177083 13.57682292 -5.96354167 13.15364583 -3.9453125 12.73046875 C-1.62953451 12.07691162 -1.62953451 12.07691162 0 9 C0.24107326 6.71351152 0.24107326 6.71351152 0.125 4.3125 C0.09792969 3.10013672 0.09792969 3.10013672 0.0703125 1.86328125 C0.04710938 1.24839844 0.02390625 0.63351563 0 0 Z " fill="#F37D2C" transform="translate(92,84)"/>
<path d="M0 0 C0.33 0 0.66 0 1 0 C1.3853211 11.02446483 1.3853211 11.02446483 -1 15 C-3.625 17.8125 -3.625 17.8125 -6 20 C-5.68933594 20.52722656 -5.37867187 21.05445312 -5.05859375 21.59765625 C-2.92486408 26.4398841 -2.74825019 31.76625385 -3 37 C-4.9375 40.3125 -4.9375 40.3125 -8 42 C-10.8583504 42.43438346 -13.07215359 42.29278464 -16 42 C-17 41 -17 41 -17.1875 38.1875 C-17.00417846 35.07103388 -16.46152039 33.66308656 -15 31 C-15.97839844 30.61908203 -15.97839844 30.61908203 -16.9765625 30.23046875 C-21.77043902 28.34261472 -26.44007102 26.39996262 -31 24 C-31 23.67 -31 23.34 -31 23 C-29.56720703 22.77957031 -29.56720703 22.77957031 -28.10546875 22.5546875 C-18.28686965 20.85136124 -10.04358176 18.44315536 -2.375 11.6875 C-0.43317306 7.89211097 -0.18380033 4.21821749 0 0 Z " fill="#EDD2BA" transform="translate(96,56)"/>
<path d="M0 0 C5.47090585 0.43767247 8.62198533 1.716489 13 5 C13.99 5.66 14.98 6.32 16 7 C16.33 5.68 16.66 4.36 17 3 C18.32 3.33 19.64 3.66 21 4 C21.66 6.31 22.32 8.62 23 11 C22.34 11 21.68 11 21 11 C19.54510564 13.59802565 18.908163 15.51428719 18.375 18.5 C16.65965627 22.8663295 15.01042143 23.554245 10.875 25.37109375 C9 26 9 26 7 26 C5.875 23.6875 5.875 23.6875 5 21 C5.66 20.01 6.32 19.02 7 18 C6.37351562 17.87882812 5.74703125 17.75765625 5.1015625 17.6328125 C4.28429688 17.46523437 3.46703125 17.29765625 2.625 17.125 C1.81289062 16.96257812 1.00078125 16.80015625 0.1640625 16.6328125 C-2 16 -2 16 -4 14 C-3.46428571 10.46428571 -3.46428571 10.46428571 -2 9 C-0.33382885 8.95936168 1.33388095 8.957279 3 9 C2.505 8.071875 2.01 7.14375 1.5 6.1875 C0 3 0 3 0 0 Z " fill="#91B150" transform="translate(14,63)"/>
<path d="M0 0 C0.99 0.66 1.98 1.32 3 2 C3.99 1.67 4.98 1.34 6 1 C10.39204977 1.78214585 14.66641372 2.92733013 19 4 C18.01 8.62 17.02 13.24 16 18 C14.72125 18.061875 13.4425 18.12375 12.125 18.1875 C11.04605469 18.23970703 11.04605469 18.23970703 9.9453125 18.29296875 C9.30335937 18.19628906 8.66140625 18.09960938 8 18 C7.34 17.01 6.68 16.02 6 15 C4.68 17.64 3.36 20.28 2 23 C0.02 23 -1.96 23 -4 23 C-3 20 -3 20 -0.9375 18.8125 C-0.298125 18.544375 0.34125 18.27625 1 18 C1 16.02 1 14.04 1 12 C-1.31 11.34 -3.62 10.68 -6 10 C-6.33 8.68 -6.66 7.36 -7 6 C-7.99 6.495 -7.99 6.495 -9 7 C-9.33 7.99 -9.66 8.98 -10 10 C-10.66 10 -11.32 10 -12 10 C-12.48137536 3.6217765 -12.48137536 3.6217765 -10.5 1.0625 C-6.7833056 -0.51709512 -4.03864659 -0.32052751 0 0 Z " fill="#F1E2CA" transform="translate(56,104)"/>
<path d="M0 0 C1.45173736 10.0008574 -3.00466581 18.42637352 -8.73046875 26.4140625 C-9.14941406 26.93742187 -9.56835938 27.46078125 -10 28 C-11.32 27.34 -12.64 26.68 -14 26 C-14.3134482 16.12638164 -13.32768448 7.95016768 -7 0 C-4.3333581 -1.33332095 -2.83319697 -0.67102033 0 0 Z " fill="#F29E7D" transform="translate(96,12)"/>
<path d="M0 0 C2.625 0.5 2.625 0.5 4.875 2.8125 C7.26894434 6.48891452 7.7486539 9.09710665 7.72265625 13.38671875 C7.71943359 14.32451172 7.71621094 15.26230469 7.71289062 16.22851562 C7.70451172 17.20498047 7.69613281 18.18144531 7.6875 19.1875 C7.68298828 20.17556641 7.67847656 21.16363281 7.67382812 22.18164062 C7.66204303 24.62115474 7.64559011 27.06054689 7.625 29.5 C6.305 29.5 4.985 29.5 3.625 29.5 C-5.23001827 10.86515738 -5.23001827 10.86515738 -4.375 3.5 C-2.375 0.5 -2.375 0.5 0 0 Z " fill="#EE9C7A" transform="translate(47.375,9.5)"/>
<path d="M0 0 C0.33 0 0.66 0 1 0 C1 3.96 1 7.92 1 12 C1.66 12 2.32 12 3 12 C3.2165625 11.0409375 3.2165625 11.0409375 3.4375 10.0625 C4 8 4 8 5 7 C7.33297433 6.95907063 9.66705225 6.95758277 12 7 C12.33 5.68 12.66 4.36 13 3 C13.33 3.66 13.66 4.32 14 5 C14.66 5 15.32 5 16 5 C16.33 4.34 16.66 3.68 17 3 C17.33 4.32 17.66 5.64 18 7 C17.360625 7.268125 16.72125 7.53625 16.0625 7.8125 C13.66868314 8.88667752 13.66868314 8.88667752 13 12 C9.7 12.66 6.4 13.32 3 14 C3.37125 14.886875 3.7425 15.77375 4.125 16.6875 C5.10784228 20.40826005 4.76062164 21.67438135 3 25 C2.34 25 1.68 25 1 25 C0.01 28.3 -0.98 31.6 -2 35 C-2.99 35 -3.98 35 -5 35 C-6.23184766 32.53630468 -6.16732342 30.8105499 -6.1875 28.0625 C-6.20167969 27.18722656 -6.21585938 26.31195313 -6.23046875 25.41015625 C-6 23 -6 23 -4 20 C-3.34 20 -2.68 20 -2 20 C-2 19.34 -2 18.68 -2 18 C-0.68 18 0.64 18 2 18 C1.67257813 17.31550781 1.34515625 16.63101563 1.0078125 15.92578125 C-0.16848212 12.51087941 -0.19777146 9.78968716 -0.125 6.1875 C-0.10695313 5.02605469 -0.08890625 3.86460938 -0.0703125 2.66796875 C-0.04710937 1.78753906 -0.02390625 0.90710937 0 0 Z " fill="#EE7D2E" transform="translate(39,54)"/>
<path d="M0 0 C1.32 0.33 2.64 0.66 4 1 C4.66 3.31 5.32 5.62 6 8 C5.34 8 4.68 8 4 8 C2.54510564 10.59802565 1.908163 12.51428719 1.375 15.5 C-0.34034373 19.8663295 -1.98957857 20.554245 -6.125 22.37109375 C-8 23 -8 23 -10 23 C-11.125 20.6875 -11.125 20.6875 -12 18 C-11.34 17.01 -10.68 16.02 -10 15 C-10.62648438 14.89042969 -11.25296875 14.78085938 -11.8984375 14.66796875 C-12.71570312 14.50941406 -13.53296875 14.35085937 -14.375 14.1875 C-15.59316406 13.96126953 -15.59316406 13.96126953 -16.8359375 13.73046875 C-19 13 -19 13 -21 10 C-20.0925 10.165 -19.185 10.33 -18.25 10.5 C-12.90137609 11.25781324 -7.38018784 11.48168601 -2 11 C-1.34 10.34 -0.68 9.68 0 9 C-0.37125 8.2575 -0.7425 7.515 -1.125 6.75 C-2 4 -2 4 -1.125 1.6875 C-0.75375 1.130625 -0.3825 0.57375 0 0 Z " fill="#617940" transform="translate(31,66)"/>
<path d="M0 0 C3.625 0.375 3.625 0.375 7 1 C8.96094691 5.72934255 9.31521514 9.02097126 8 14 C6.4375 15.9375 6.4375 15.9375 4 17 C1.24154542 17.28443209 -1.20617033 17.18320195 -4 17 C-5 16 -5 16 -5.0625 12.9375 C-5.041875 11.968125 -5.02125 10.99875 -5 10 C-3.68 9.67 -2.36 9.34 -1 9 C-1.20625 7.88625 -1.4125 6.7725 -1.625 5.625 C-1.74875 4.42875 -1.8725 3.2325 -2 2 C-1.34 1.34 -0.68 0.68 0 0 Z " fill="#F8F1DB" transform="translate(84,81)"/>
<path d="M0 0 C0.33 0 0.66 0 1 0 C1 1.65 1 3.3 1 5 C1.66 5 2.32 5 3 5 C3.33 3.68 3.66 2.36 4 1 C4.66 1 5.32 1 6 1 C6.33 2.32 6.66 3.64 7 5 C8.423125 4.938125 8.423125 4.938125 9.875 4.875 C13 5 13 5 15 7 C15.25 10 15.25 10 15 13 C14.34 13.66 13.68 14.32 13 15 C12.01 15 11.02 15 10 15 C10 15.66 10 16.32 10 17 C11.65 17.33 13.3 17.66 15 18 C15 18.33 15 18.66 15 19 C8.375 19.125 8.375 19.125 5 18 C5 17.34 5 16.68 5 16 C4.01 15.67 3.02 15.34 2 15 C0.30833162 9.83595969 -0.22514824 5.4035577 0 0 Z " fill="#D9C7B5" transform="translate(43,109)"/>
<path d="M0 0 C1.72926874 0.31193464 3.45841044 0.62457362 5.1875 0.9375 C6.15042969 1.11152344 7.11335938 1.28554687 8.10546875 1.46484375 C10.74159525 1.95222476 13.37125667 2.47425133 16 3 C15.01 7.62 14.02 12.24 13 17 C6.84765625 17.09765625 6.84765625 17.09765625 5 17 C2.87785153 14.87785153 3.05933843 10.73033982 2.59765625 7.859375 C2.01166516 5.05580977 1.1426727 2.62001942 0 0 Z " fill="#FBF6E0" transform="translate(59,105)"/>
<path d="M0 0 C0.99 0.33 1.98 0.66 3 1 C3 1.66 3 2.32 3 3 C4.32 3.33 5.64 3.66 7 4 C6.67 5.32 6.34 6.64 6 8 C5.01 8 4.02 8 3 8 C3.020625 8.94875 3.04125 9.8975 3.0625 10.875 C3 14 3 14 2 16 C2.66 16.66 3.32 17.32 4 18 C5.65 16.35 7.3 14.7 9 13 C8.09126425 16.05665662 7.32469175 17.72305703 4.875 19.8125 C1.02507023 21.40268838 -1.85313784 21.2108574 -6 21 C-4.68 20.67 -3.36 20.34 -2 20 C-2.495 19.484375 -2.99 18.96875 -3.5 18.4375 C-5.52701444 15.14360153 -5.35173852 12.79877599 -5 9 C-3 7 -3 7 -0.375 6.875 C0.40875 6.91625 1.1925 6.9575 2 7 C2 6.34 2 5.68 2 5 C1.34 5 0.68 5 0 5 C0 3.35 0 1.7 0 0 Z " fill="#DF805D" transform="translate(83,107)"/>
<path d="M0 0 C1.58357459 0.31127516 3.16684993 0.62407289 4.75 0.9375 C5.63171875 1.11152344 6.5134375 1.28554687 7.421875 1.46484375 C9.63235053 1.92368488 11.81512068 2.43336074 14 3 C14.33 2.34 14.66 1.68 15 1 C18.4375 2.3125 18.4375 2.3125 22 4 C22.33 4.99 22.66 5.98 23 7 C14.33977247 10.93646706 7.85692022 9.82667667 -1 7 C-0.67 4.69 -0.34 2.38 0 0 Z " fill="#D95F2B" transform="translate(64,95)"/>
<path d="M0 0 C0.3125 3.25 0.3125 3.25 0 7 C-2.79586484 10.3042039 -4.37281678 10.93621866 -8.6875 11.375 C-12 11 -12 11 -14 9 C-14 6.125 -14 6.125 -13 3 C-8.57904676 -1.10517087 -5.77427624 -1.3858263 0 0 Z " fill="#F5ECD6" transform="translate(55,89)"/>
<path d="M0 0 C0.33 0 0.66 0 1 0 C1.19916016 1.12148437 1.19916016 1.12148437 1.40234375 2.265625 C1.57894531 3.25046875 1.75554687 4.2353125 1.9375 5.25 C2.11152344 6.22453125 2.28554687 7.1990625 2.46484375 8.203125 C2.90135133 10.48443468 3.43666368 12.74665473 4 15 C-2.27 15 -8.54 15 -15 15 C-13.66666667 11 -12.33333333 7 -11 3 C-10.67 3 -10.34 3 -10 3 C-9.67 4.98 -9.34 6.96 -9 9 C-6.36 9.33 -3.72 9.66 -1 10 C-1.020625 8.906875 -1.04125 7.81375 -1.0625 6.6875 C-1 3 -1 3 0 0 Z " fill="#C9BAA6" transform="translate(73,112)"/>
<path d="M0 0 C8.01317143 0.40744939 15.37028204 2.66658697 23 5 C23 5.99 23 6.98 23 8 C20.64575325 8.02726927 18.29183038 8.04696719 15.9375 8.0625 C13.97103516 8.07990234 13.97103516 8.07990234 11.96484375 8.09765625 C8.1836481 8.00452335 4.72079293 7.61448726 1 7 C0.67 7.99 0.34 8.98 0 10 C-0.19412181 8.52168779 -0.38012131 7.04230684 -0.5625 5.5625 C-0.66691406 4.73878906 -0.77132812 3.91507812 -0.87890625 3.06640625 C-0.91886719 2.38449219 -0.95882812 1.70257813 -1 1 C-0.67 0.67 -0.34 0.34 0 0 Z " fill="#DD6027" transform="translate(94,104)"/>
<path d="M0 0 C2.87579981 4.31369972 4 7.80734761 4 13 C3.690625 13.763125 3.38125 14.52625 3.0625 15.3125 C1.79448499 18.51983208 1.40165032 21.58597226 1 25 C0.13375 24.360625 -0.7325 23.72125 -1.625 23.0625 C-4.9598812 21.02451704 -7.16047478 20.36566907 -11 20 C-10.01 18.68 -9.02 17.36 -8 16 C-8.66 15.34 -9.32 14.68 -10 14 C-7.98177083 13.57682292 -5.96354167 13.15364583 -3.9453125 12.73046875 C-1.62953451 12.07691162 -1.62953451 12.07691162 0 9 C0.24107326 6.71351152 0.24107326 6.71351152 0.125 4.3125 C0.09792969 3.10013672 0.09792969 3.10013672 0.0703125 1.86328125 C0.04710938 1.24839844 0.02390625 0.63351563 0 0 Z " fill="#DA783E" transform="translate(92,84)"/>
<path d="M0 0 C1.75 1.8125 1.75 1.8125 3 4 C2.67 4.99 2.34 5.98 2 7 C-0.31 6.67 -2.62 6.34 -5 6 C-5.82638376 8.89234315 -6 10.88742431 -6 14 C-6.66 13.67 -7.32 13.34 -8 13 C-8 12.34 -8 11.68 -8 11 C-8.71027344 10.73445313 -9.42054687 10.46890625 -10.15234375 10.1953125 C-11.07144531 9.84210938 -11.99054688 9.48890625 -12.9375 9.125 C-13.85402344 8.77695313 -14.77054687 8.42890625 -15.71484375 8.0703125 C-18 7 -18 7 -19 5 C-17.89591797 4.70996094 -17.89591797 4.70996094 -16.76953125 4.4140625 C-15.79371094 4.15367188 -14.81789063 3.89328125 -13.8125 3.625 C-12.84957031 3.36976562 -11.88664062 3.11453125 -10.89453125 2.8515625 C-8.00233417 2.05531612 -8.00233417 2.05531612 -5.32421875 0.8984375 C-3 0 -3 0 0 0 Z " fill="#B59581" transform="translate(89,76)"/>
<path d="M0 0 C0.33 0 0.66 0 1 0 C1 3.96 1 7.92 1 12 C1.66 12 2.32 12 3 12 C3.2165625 11.0409375 3.2165625 11.0409375 3.4375 10.0625 C4 8 4 8 5 7 C7.33297433 6.95907063 9.66705225 6.95758277 12 7 C12.33 5.68 12.66 4.36 13 3 C13.33 3.66 13.66 4.32 14 5 C14.66 5 15.32 5 16 5 C16.33 4.34 16.66 3.68 17 3 C17.33 4.32 17.66 5.64 18 7 C17.360625 7.268125 16.72125 7.53625 16.0625 7.8125 C13.66868314 8.88667752 13.66868314 8.88667752 13 12 C11.93458984 12.18175781 11.93458984 12.18175781 10.84765625 12.3671875 C9.92855469 12.53476563 9.00945313 12.70234375 8.0625 12.875 C6.68771484 13.11863281 6.68771484 13.11863281 5.28515625 13.3671875 C4.53105469 13.57601562 3.77695312 13.78484375 3 14 C2.67 14.66 2.34 15.32 2 16 C-0.42130331 12.36804504 -0.21022785 10.61650652 -0.125 6.3125 C-0.09792969 4.54326172 -0.09792969 4.54326172 -0.0703125 2.73828125 C-0.04710937 1.83464844 -0.02390625 0.93101563 0 0 Z " fill="#DCB4A3" transform="translate(39,54)"/>
<path d="M0 0 C1.65 0.33 3.3 0.66 5 1 C5.99 4.63 6.98 8.26 8 12 C1.6166552 12.48176187 1.6166552 12.48176187 -1 10.4375 C-2.40663962 7.00881592 -1.80537401 4.55706853 -1 1 C-0.67 0.67 -0.34 0.34 0 0 Z " fill="#D1C3AF" transform="translate(35,108)"/>
<path d="M0 0 C2.475 0.495 2.475 0.495 5 1 C5 2.32 5 3.64 5 5 C7.31 5 9.62 5 12 5 C12.33 6.65 12.66 8.3 13 10 C10.23749964 11.38125018 8.05268901 11.19079306 5 11 C4.34 10.34 3.68 9.68 3 9 C3 8.01 3 7.02 3 6 C2.01 6 1.02 6 0 6 C0 4.02 0 2.04 0 0 Z " fill="#EFB7A4" transform="translate(79,57)"/>
<path d="M0 0 C0.66 0 1.32 0 2 0 C3.84142662 3.68285324 3.36956872 7.97170091 3 12 C1.5 15.625 1.5 15.625 0 18 C-1.98 18 -3.96 18 -6 18 C-5 15 -5 15 -2.9375 13.8125 C-1.9784375 13.4103125 -1.9784375 13.4103125 -1 13 C-1 11.02 -1 9.04 -1 7 C-3.31 6.34 -5.62 5.68 -8 5 C-8 4.34 -8 3.68 -8 3 C-5.69 3 -3.38 3 -1 3 C-0.67 2.01 -0.34 1.02 0 0 Z " fill="#F8F1DC" transform="translate(58,109)"/>
<path d="M0 0 C2.5625 0.1875 2.5625 0.1875 4.5625 2.1875 C4.8125 5.1875 4.8125 5.1875 4.5625 8.1875 C3.9025 8.8475 3.2425 9.5075 2.5625 10.1875 C0.0625 10 0.0625 10 -2.4375 9.1875 C-4.4375 6.1875 -4.4375 6.1875 -4.125 3.5625 C-3.16420807 0.24340062 -3.16420807 0.24340062 0 0 Z " fill="#E08566" transform="translate(53.4375,113.8125)"/>
<path d="M0 0 C0.556875 0.28875 1.11375 0.5775 1.6875 0.875 C1.6875 1.205 1.6875 1.535 1.6875 1.875 C-11.9457574 2.2440205 -11.9457574 2.2440205 -18.3125 -0.125 C-18.3125 -0.785 -18.3125 -1.445 -18.3125 -2.125 C-11.35196808 -4.44517731 -6.37231677 -3.10004599 0 0 Z " fill="#96B850" transform="translate(28.3125,76.125)"/>
<path d="M0 0 C1.9476546 2.19683234 2.95171963 3.47145701 3.22265625 6.4375 C3.16980469 7.283125 3.11695312 8.12875 3.0625 9 C2.84401564 12.6750189 3.10328764 14.81175199 5 18 C3.68 18 2.36 18 1 18 C-1.67280849 12.65438302 -2.49882462 8.98589539 -2 3 C-1.34 2.01 -0.68 1.02 0 0 Z " fill="#F8F1DC" transform="translate(76,109)"/>
<path d="M0 0 C0.66 0 1.32 0 2 0 C2.76681614 7.66816143 2.76681614 7.66816143 0.88671875 10.93359375 C-0.5 12.5625 -0.5 12.5625 -3 15 C-4.32 14.01 -5.64 13.02 -7 12 C-6.34 11.34 -5.68 10.68 -5 10 C-4.60235737 8.01178687 -4.26224651 6.01055661 -4 4 C-3.01 3.67 -2.02 3.34 -1 3 C-0.67 2.01 -0.34 1.02 0 0 Z " fill="#EFE7D4" transform="translate(90,111)"/>
<path d="M0 0 C0.33 0 0.66 0 1 0 C1.33 3.63 1.66 7.26 2 11 C2.99 11 3.98 11 5 11 C5.33 9.02 5.66 7.04 6 5 C6.33 5 6.66 5 7 5 C7.06058594 5.59167969 7.12117188 6.18335937 7.18359375 6.79296875 C7.62012371 10.90978208 8.08671346 14.95544533 9 19 C6.96166576 17.7260411 4.96147874 16.38938077 3 15 C3 14.34 3 13.68 3 13 C2.34 13 1.68 13 1 13 C-0.9078584 9.8250906 -1.1609041 7.89414789 -0.625 4.25 C-0.51414062 3.45078125 -0.40328125 2.6515625 -0.2890625 1.828125 C-0.19367187 1.22484375 -0.09828125 0.6215625 0 0 Z " fill="#A35234" transform="translate(32,78)"/>
<path d="M0 0 C1.65 0 3.3 0 5 0 C4.01 0.66 3.02 1.32 2 2 C5.71750779 6.20240011 10.31660979 8.99782679 15 12 C14.01 12.495 14.01 12.495 13 13 C12.175 12.690625 11.35 12.38125 10.5 12.0625 C5.93283622 10.67603957 1.73444712 10.83158093 -3 11 C-2.67 10.34 -2.34 9.68 -2 9 C-0.35 9 1.3 9 3 9 C2.505 8.071875 2.01 7.14375 1.5 6.1875 C0 3 0 3 0 0 Z " fill="#5D7144" transform="translate(14,63)"/>
<path d="M0 0 C5.56329746 0.70941377 10.97148045 1.81601851 16.4375 3.0625 C17.26443359 3.24876953 18.09136719 3.43503906 18.94335938 3.62695312 C20.96279004 4.0822005 22.98147387 4.54075861 25 5 C24.34 5.66 23.68 6.32 23 7 C16.18737248 6.67558917 6.47580799 6.05811433 1.1796875 1.3984375 C0.79039063 0.93695313 0.40109375 0.47546875 0 0 Z " fill="#E1BBA1" transform="translate(54,100)"/>
<path d="M0 0 C-0.99 1.485 -0.99 1.485 -2 3 C-2.07905064 5.33199388 -2.08798769 7.66832622 -2 10 C-2.66 9.67 -3.32 9.34 -4 9 C-4 8.34 -4 7.68 -4 7 C-8.455 5.02 -8.455 5.02 -13 3 C-13 2.67 -13 2.34 -13 2 C-11.21089097 1.47044766 -9.41860852 0.9516063 -7.625 0.4375 C-6.62726563 0.14746094 -5.62953125 -0.14257812 -4.6015625 -0.44140625 C-2 -1 -2 -1 0 0 Z " fill="#DFC3A9" transform="translate(85,80)"/>
<path d="M0 0 C2.75 0.25 2.75 0.25 5 1 C6.02186657 9.55340163 3.5846562 15.79044996 -1 23 C-1.66 23.33 -2.32 23.66 -3 24 C-2.06865779 21.59403263 -1.11162446 19.22793544 0.0234375 16.91015625 C2.4063452 11.96689028 3.46711665 8.48862059 3 3 C1.68 3 0.36 3 -1 3 C-1.33 3.66 -1.66 4.32 -2 5 C-2.66 4.67 -3.32 4.34 -4 4 C-2.3125 1.9375 -2.3125 1.9375 0 0 Z " fill="#DC9376" transform="translate(91,11)"/>
<path d="M0 0 C1.65 0 3.3 0 5 0 C8.57142857 7.28571429 8.57142857 7.28571429 7 12 C6.01 11.67 5.02 11.34 4 11 C2.9375 8.25 2.9375 8.25 2 5 C1.34588315 3.32836805 0.68346682 1.65984798 0 0 Z " fill="#DDD9C9" transform="translate(43,30)"/>
<path d="M0 0 C0.66 0 1.32 0 2 0 C2 2.75 2 2.75 1 6 C-1.95785914 8.14526048 -5.29256965 10 -9 10 C-9.33 9.01 -9.66 8.02 -10 7 C-8.9171875 6.6596875 -8.9171875 6.6596875 -7.8125 6.3125 C-4.47560763 4.75528356 -2.55051994 2.61945291 0 0 Z " fill="#56703F" transform="translate(30,79)"/>
<path d="M0 0 C0.33 0 0.66 0 1 0 C1.39130435 11.19565217 1.39130435 11.19565217 -1 15 C-2.91417635 16.83272203 -4.8831314 18.38933911 -7 20 C-7.33 19.01 -7.66 18.02 -8 17 C-6.6015625 15.2734375 -6.6015625 15.2734375 -4.625 13.375 C-0.65645253 9.13031106 0.09254796 5.71153098 0 0 Z " fill="#ABA293" transform="translate(96,56)"/>
<path d="M0 0 C3.63 0 7.26 0 11 0 C11 0.66 11 1.32 11 2 C14.96 2 18.92 2 23 2 C23 2.33 23 2.66 23 3 C20.64575325 3.02726927 18.29183038 3.04696719 15.9375 3.0625 C13.97103516 3.07990234 13.97103516 3.07990234 11.96484375 3.09765625 C8.1836481 3.00452335 4.72079293 2.61448726 1 2 C0.67 2.99 0.34 3.98 0 5 C0 3.35 0 1.7 0 0 Z " fill="#8F563E" transform="translate(94,109)"/>
<path d="M0 0 C0.33 0.66 0.66 1.32 1 2 C-2.625 6.875 -2.625 6.875 -6 8 C-7.39439664 8.06665376 -8.79169875 8.08538199 -10.1875 8.0625 C-12.0746875 8.0315625 -12.0746875 8.0315625 -14 8 C-12.68 7.67 -11.36 7.34 -10 7 C-10.33 6.01 -10.66 5.02 -11 4 C-9.02 3.67 -7.04 3.34 -5 3 C-4.67 3.66 -4.34 4.32 -4 5 C-2.68 3.35 -1.36 1.7 0 0 Z " fill="#999490" transform="translate(91,120)"/>
<path d="M0 0 C0.99 0.33 1.98 0.66 3 1 C3 1.66 3 2.32 3 3 C4.32 3.33 5.64 3.66 7 4 C6.67 5.32 6.34 6.64 6 8 C4.68 8.33 3.36 8.66 2 9 C1.67 8.34 1.34 7.68 1 7 C1.33 6.34 1.66 5.68 2 5 C1.34 5 0.68 5 0 5 C0 3.35 0 1.7 0 0 Z " fill="#E3AE95" transform="translate(83,107)"/>
<path d="M0 0 C1.98 0 3.96 0 6 0 C6 0.99 6 1.98 6 3 C5.34 3 4.68 3 4 3 C4 3.99 4 4.98 4 6 C5.32 5.34 6.64 4.68 8 4 C7.67 4.99 7.34 5.98 7 7 C4.36 7 1.72 7 -1 7 C-1 6.01 -1 5.02 -1 4 C0.485 4.99 0.485 4.99 2 6 C1.34 4.02 0.68 2.04 0 0 Z " fill="#635B54" transform="translate(65,60)"/>
<path d="M0 0 C2.46800047 1.15173355 4.04783565 2.04783565 6 4 C6 5.32 6 6.64 6 8 C1.71 8 -2.58 8 -7 8 C-7 7.67 -7 7.34 -7 7 C-2.545 6.505 -2.545 6.505 2 6 C1.34 5.01 0.68 4.02 0 3 C0 2.01 0 1.02 0 0 Z " fill="#BB6239" transform="translate(112,103)"/>
<path d="M0 0 C-1.15173355 2.46800047 -2.04783565 4.04783565 -4 6 C-6.625 5.625 -6.625 5.625 -9 5 C-8.1875 3.0625 -8.1875 3.0625 -7 1 C-4 0 -4 0 0 0 Z " fill="#8EAA54" transform="translate(28,80)"/>
<path d="M0 0 C2.475 0.99 2.475 0.99 5 2 C4.67 3.98 4.34 5.96 4 8 C3.01 8 2.02 8 1 8 C-0.35439668 5.29120665 -0.06501451 2.99066732 0 0 Z " fill="#DF5F29" transform="translate(33,81)"/>
<path d="M0 0 C1.98 0.99 3.96 1.98 6 3 C6 3.33 6 3.66 6 4 C5.0925 4.28875 4.185 4.5775 3.25 4.875 C0.67797092 5.76531776 -1.61346766 6.71494413 -4 8 C-2.87548273 5.0280615 -1.77706209 2.66559313 0 0 Z " fill="#B95F2B" transform="translate(97,94)"/>
<path d="M0 0 C0.79921875 0.01804688 1.5984375 0.03609375 2.421875 0.0546875 C3.02515625 0.07789063 3.6284375 0.10109375 4.25 0.125 C4.25 0.455 4.25 0.785 4.25 1.125 C2.4246875 1.2178125 2.4246875 1.2178125 0.5625 1.3125 C-3.93745495 1.83815845 -5.77623841 3.71392052 -8.75 7.125 C-9.41 7.125 -10.07 7.125 -10.75 7.125 C-9.27961672 2.4687863 -9.27961672 2.4687863 -6.96875 0.96875 C-4.4784107 0.02171956 -2.65311901 -0.07803291 0 0 Z " fill="#AAABA4" transform="translate(94.75,3.875)"/>
<path d="M0 0 C0.33 0 0.66 0 1 0 C1.36552803 1.41377782 1.71695495 2.83120576 2.0625 4.25 C2.25972656 5.03890625 2.45695312 5.8278125 2.66015625 6.640625 C3.01497267 9.10394822 2.76877544 10.65604132 2 13 C-0.97 12.505 -0.97 12.505 -4 12 C-2.68 11.34 -1.36 10.68 0 10 C-0.185625 9.46375 -0.37125 8.9275 -0.5625 8.375 C-1.11419324 5.38009386 -0.60597444 2.96254171 0 0 Z " fill="#B8A496" transform="translate(42,109)"/>
<path d="M0 0 C2.375 -0.125 2.375 -0.125 5 0 C5.66 0.66 6.32 1.32 7 2 C6.67 2.99 6.34 3.98 6 5 C3.69 4.34 1.38 3.68 -1 3 C-0.67 2.01 -0.34 1.02 0 0 Z " fill="#B2A596" transform="translate(85,78)"/>
<path d="M0 0 C1.32 0 2.64 0 4 0 C4 1.65 4 3.3 4 5 C2.68 5.33 1.36 5.66 0 6 C0 4.02 0 2.04 0 0 Z " fill="#575353" transform="translate(79,57)"/>
<path d="M0 0 C0.66 0 1.32 0 2 0 C2 2.64 2 5.28 2 8 C1.01 8 0.02 8 -1 8 C-1.125 2.25 -1.125 2.25 0 0 Z " fill="#F6F4E0" transform="translate(36,108)"/>
<path d="M0 0 C1.48280196 0.78483659 2.9611498 1.57809334 4.4375 2.375 C5.67306641 3.03628906 5.67306641 3.03628906 6.93359375 3.7109375 C9 5 9 5 10 7 C4.5388601 6.03108808 4.5388601 6.03108808 2 5 C0.5 2.375 0.5 2.375 0 0 Z " fill="#688B3A" transform="translate(19,69)"/>
<path d="M0 0 C1.65 0 3.3 0 5 0 C5 3 5 6 5 9 C2.67527795 6.14693203 1.2491742 3.45925163 0 0 Z " fill="#B2B1A5" transform="translate(43,30)"/>
<path d="M0 0 C0.99 0 1.98 0 3 0 C3 2.31 3 4.62 3 7 C2.34 7 1.68 7 1 7 C0.67 4.69 0.34 2.38 0 0 Z " fill="#8EA956" transform="translate(31,66)"/>
<path d="M0 0 C0.33 0.66 0.66 1.32 1 2 C1.66 2 2.32 2 3 2 C3.33 1.34 3.66 0.68 4 0 C4.33 1.32 4.66 2.64 5 4 C3.35 4.33 1.7 4.66 0 5 C0 3.35 0 1.7 0 0 Z " fill="#464343" transform="translate(52,57)"/>
<path d="M0 0 C1.9375 0.75 1.9375 0.75 4 2 C4.75 4.125 4.75 4.125 5 6 C3.68 5.67 2.36 5.34 1 5 C0.67 3.35 0.34 1.7 0 0 Z " fill="#CE7237" transform="translate(112,103)"/>
<path d="M0 0 C0.66 0 1.32 0 2 0 C2 1.98 2 3.96 2 6 C0.35 5.67 -1.3 5.34 -3 5 C-3 4.34 -3 3.68 -3 3 C-2.34 3 -1.68 3 -1 3 C-0.67 2.01 -0.34 1.02 0 0 Z " fill="#EA7936" transform="translate(77,93)"/>
<path d="M0 0 C0.99 0.66 1.98 1.32 3 2 C2.34 4.31 1.68 6.62 1 9 C0 6 0 6 1 3 C-0.65 3 -2.3 3 -4 3 C-2.68 2.67 -1.36 2.34 0 2 C0 1.34 0 0.68 0 0 Z " fill="#A0522E" transform="translate(41,70)"/>
<path d="M0 0 C0.99 0.33 1.98 0.66 3 1 C2.67 2.32 2.34 3.64 2 5 C1.01 5 0.02 5 -1 5 C-0.67 3.35 -0.34 1.7 0 0 Z " fill="#D78A6C" transform="translate(87,110)"/>
<path d="M0 0 C1.32 0.33 2.64 0.66 4 1 C3.67 2.32 3.34 3.64 3 5 C2.01 4.67 1.02 4.34 0 4 C0 2.68 0 1.36 0 0 Z " fill="#D58969" transform="translate(54,108)"/>
<path d="M0 0 C3.37503669 1.1858237 5.64722731 2.27573689 8 5 C7.01 5.33 6.02 5.66 5 6 C5 5.34 5 4.68 5 4 C4.360625 3.896875 3.72125 3.79375 3.0625 3.6875 C2.381875 3.460625 1.70125 3.23375 1 3 C0.67 2.01 0.34 1.02 0 0 Z " fill="#9D6337" transform="translate(104,98)"/>
<path d="M0 0 C1.98 0 3.96 0 6 0 C6 0.99 6 1.98 6 3 C4.35 3 2.7 3 1 3 C0.67 2.01 0.34 1.02 0 0 Z " fill="#C76C55" transform="translate(65,60)"/>
<path d="M0 0 C1.65 0 3.3 0 5 0 C5 0.99 5 1.98 5 3 C3.68 3 2.36 3 1 3 C0.34 3.66 -0.32 4.32 -1 5 C-0.67 3.35 -0.34 1.7 0 0 Z " fill="#DB886A" transform="translate(45,10)"/>
<path d="" fill="#434947" transform="translate(0,0)"/>
<path d="" fill="#474947" transform="translate(0,0)"/>
</svg>
