<?xml version="1.0" encoding="UTF-8"?>
<svg version="1.1" xmlns="http://www.w3.org/2000/svg" width="48" height="48">
<path d="M0 0 C1.2065625 0.0309375 1.2065625 0.0309375 2.4375 0.0625 C5.10340937 4.61676184 5.75313182 7.80196963 5.4375 13.0625 C7.4175 13.0625 9.3975 13.0625 11.4375 13.0625 C11.31375 11.763125 11.31375 11.763125 11.1875 10.4375 C11.49378741 6.30261993 12.95858722 4.31607303 15.4375 1.0625 C20.3125 1.9375 20.3125 1.9375 21.4375 3.0625 C21.91310227 7.05755905 21.45740728 9.32458711 19.3125 12.625 C18.69375 13.759375 18.075 14.89375 17.4375 16.0625 C18.19035597 18.65297977 18.19035597 18.65297977 19.4375 21.0625 C19.11504294 24.28707063 18.46171951 26.98984147 17.4375 30.0625 C17.43906224 32.65367313 17.43906224 32.65367313 18.4375 35.0625 C20.76604463 36.26088209 20.76604463 36.26088209 23.4375 37.0625 C25.75 38.5625 25.75 38.5625 27.4375 40.0625 C27.4375 40.7225 27.4375 41.3825 27.4375 42.0625 C24.4675 42.0625 21.4975 42.0625 18.4375 42.0625 C18.128125 42.866875 17.81875 43.67125 17.5 44.5 C16.4375 47.0625 16.4375 47.0625 15.4375 48.0625 C13.02396168 48.24403617 10.66625181 48.34064571 8.25 48.375 C6.93644531 48.41238281 5.62289063 48.44976562 4.26953125 48.48828125 C-0.30070945 47.98047673 -2.0216574 46.8544241 -5.5625 44.0625 C-5.2325 42.7425 -4.9025 41.4225 -4.5625 40.0625 C-3.9025 40.0625 -3.2425 40.0625 -2.5625 40.0625 C-2.91036708 38.08713255 -2.91036708 38.08713255 -3.5625 36.0625 C-4.2225 35.7325 -4.8825 35.4025 -5.5625 35.0625 C-5.5625 34.4025 -5.5625 33.7425 -5.5625 33.0625 C-7.2125 33.0625 -8.8625 33.0625 -10.5625 33.0625 C-10.5625 32.4025 -10.5625 31.7425 -10.5625 31.0625 C-11.8825 30.4025 -13.2025 29.7425 -14.5625 29.0625 C-14.5625 28.4025 -14.5625 27.7425 -14.5625 27.0625 C-13.9025 26.7325 -13.2425 26.4025 -12.5625 26.0625 C-12.5625 25.0725 -12.5625 24.0825 -12.5625 23.0625 C-9.9225 23.3925 -7.2825 23.7225 -4.5625 24.0625 C-1.67515799 17.72119981 -1.67515799 17.72119981 -2.5625 11.0625 C-2.93375 10.2375 -3.305 9.4125 -3.6875 8.5625 C-4.72153813 5.60810534 -4.46692846 4.02244769 -3.5625 1.0625 C-2.5625 0.0625 -2.5625 0.0625 0 0 Z M-3.5625 25.0625 C-2.5625 27.0625 -2.5625 27.0625 -2.5625 27.0625 Z " fill="#F4EFDC" transform="translate(17.5625,-0.0625)"/>
<path d="M0 0 C2.64 0.33 5.28 0.66 8 1 C8.33 1.99 8.66 2.98 9 4 C9.969375 4.0825 10.93875 4.165 11.9375 4.25 C16.67119101 4.8999125 20.73984407 6.92305323 25 9 C25 10.65 25 12.3 25 14 C27.46800047 12.84826645 29.04783565 11.95216435 31 10 C31 10.66 31 11.32 31 12 C31.7425 12.268125 32.485 12.53625 33.25 12.8125 C35.89061949 13.95276751 37.85552844 15.09380306 40 17 C40 17.66 40 18.32 40 19 C37.03 19 34.06 19 31 19 C30.690625 19.804375 30.38125 20.60875 30.0625 21.4375 C29 24 29 24 28 25 C25.58646168 25.18153617 23.22875181 25.27814571 20.8125 25.3125 C19.49894531 25.34988281 18.18539063 25.38726562 16.83203125 25.42578125 C12.26179055 24.91797673 10.5408426 23.7919241 7 21 C7.33 19.68 7.66 18.36 8 17 C8.66 17 9.32 17 10 17 C9.65213292 15.02463255 9.65213292 15.02463255 9 13 C8.34 12.67 7.68 12.34 7 12 C7 11.34 7 10.68 7 10 C5.35 10 3.7 10 2 10 C2 9.34 2 8.68 2 8 C0.68 7.34 -0.64 6.68 -2 6 C-2 5.34 -2 4.68 -2 4 C-1.34 3.67 -0.68 3.34 0 3 C0 2.01 0 1.02 0 0 Z " fill="#EF7D30" transform="translate(5,23)"/>
<path d="M0 0 C0.99 0.33 1.98 0.66 3 1 C3.33 1.99 3.66 2.98 4 4 C4.75925781 4.12117188 5.51851562 4.24234375 6.30078125 4.3671875 C7.29464844 4.53476562 8.28851563 4.70234375 9.3125 4.875 C10.29863281 5.03742187 11.28476562 5.19984375 12.30078125 5.3671875 C15 6 15 6 18 8 C17.25 12.75 17.25 12.75 15 15 C11.734375 15.3359375 11.734375 15.3359375 7.75 15.375 C6.44546875 15.40335938 5.1409375 15.43171875 3.796875 15.4609375 C-0.7262632 14.91183225 -2.48310793 13.76327234 -6 11 C-5.67 9.68 -5.34 8.36 -5 7 C-4.34 7 -3.68 7 -3 7 C-3.061875 6.21625 -3.12375 5.4325 -3.1875 4.625 C-3.125625 3.75875 -3.06375 2.8925 -3 2 C-2.01 1.34 -1.02 0.68 0 0 Z " fill="#E0BDA6" transform="translate(18,33)"/>
<path d="M0 0 C4.55555556 0.55555556 4.55555556 0.55555556 6 2 C6.61192269 7.26253509 5.24509023 9.8959153 2 14 C1.01 14.495 1.01 14.495 0 15 C-0.66 14.67 -1.32 14.34 -2 14 C-2 12.02 -2 10.04 -2 8 C-2.66 8 -3.32 8 -4 8 C-2.25 2.25 -2.25 2.25 0 0 Z " fill="#EEEDDB" transform="translate(33,1)"/>
<path d="M0 0 C1.2065625 0.0309375 1.2065625 0.0309375 2.4375 0.0625 C5.24146138 5.01066714 4.21100507 9.67932285 3.4375 15.0625 C2.1175 15.3925 0.7975 15.7225 -0.5625 16.0625 C-1.26615602 14.5072088 -1.94979378 12.94285173 -2.625 11.375 C-3.00785156 10.50488281 -3.39070312 9.63476562 -3.78515625 8.73828125 C-4.66203482 5.71988016 -4.47515106 4.04035001 -3.5625 1.0625 C-2.5625 0.0625 -2.5625 0.0625 0 0 Z " fill="#E1DFCF" transform="translate(17.5625,-0.0625)"/>
<path d="M0 0 C0.33 0.66 0.66 1.32 1 2 C2.6635479 2.67441131 4.33066942 3.3400321 6 4 C8.3125 5.5 8.3125 5.5 10 7 C10 7.66 10 8.32 10 9 C8.5629191 9.05422947 7.12524538 9.09289723 5.6875 9.125 C4.88699219 9.14820313 4.08648437 9.17140625 3.26171875 9.1953125 C1 9 1 9 -2 7 C-4.8230153 6.39596701 -7.64888449 5.98715131 -10.50390625 5.5625 C-13 5 -13 5 -15 3 C-14.34 2.34 -13.68 1.68 -13 1 C-11.948125 1.495 -11.948125 1.495 -10.875 2 C-7.67262761 3.11386866 -5.36585848 3.37398428 -2 3 C-1.34 2.01 -0.68 1.02 0 0 Z " fill="#D96F31" transform="translate(35,33)"/>
<path d="M0 0 C1.98 0.99 3.96 1.98 6 3 C6.33 2.01 6.66 1.02 7 0 C6.51421457 3.12290635 6.0013988 5.99580359 5 9 C5.020625 9.845625 5.04125 10.69125 5.0625 11.5625 C5 14 5 14 3 16 C2.01 16 1.02 16 0 16 C0 14.35 0 12.7 0 11 C-1.65 10.67 -3.3 10.34 -5 10 C-2.33333333 8.66666667 0.33333333 7.33333333 3 6 C1.68 4.35 0.36 2.7 -1 1 C-0.67 0.67 -0.34 0.34 0 0 Z " fill="#C6B0A0" transform="translate(30,21)"/>
<path d="M0 0 C2.64 0.33 5.28 0.66 8 1 C9.25541557 4.76624671 8.37061958 6.37188934 7 10 C5.35 10 3.7 10 2 10 C2 9.34 2 8.68 2 8 C0.68 7.34 -0.64 6.68 -2 6 C-2 5.34 -2 4.68 -2 4 C-1.34 3.67 -0.68 3.34 0 3 C0 2.01 0 1.02 0 0 Z " fill="#88A551" transform="translate(5,23)"/>
<path d="M0 0 C4.16138263 -0.08159574 7.9472484 0.01751476 12 1 C12 1.66 12 2.32 12 3 C12.99 3.33 13.98 3.66 15 4 C14.01 4 13.02 4 12 4 C11.67 4.99 11.34 5.98 11 7 C9.02 7 7.04 7 5 7 C5 5.35 5 3.7 5 2 C3.35 2 1.7 2 0 2 C0.33 2.99 0.66 3.98 1 5 C0.34 5 -0.32 5 -1 5 C-0.67 3.35 -0.34 1.7 0 0 Z " fill="#F4ECD5" transform="translate(17,39)"/>
<path d="M0 0 C0.99 0.33 1.98 0.66 3 1 C3 1.66 3 2.32 3 3 C1.35 3.33 -0.3 3.66 -2 4 C-1.67 6.97 -1.34 9.94 -1 13 C-2.32 12.67 -3.64 12.34 -5 12 C-5.33 10.68 -5.66 9.36 -6 8 C-5.01 7.67 -4.02 7.34 -3 7 C-3.061875 6.21625 -3.12375 5.4325 -3.1875 4.625 C-3.125625 3.75875 -3.06375 2.8925 -3 2 C-2.01 1.34 -1.02 0.68 0 0 Z " fill="#D3C6B5" transform="translate(18,33)"/>
<path d="M0 0 C3.875 0.875 3.875 0.875 5 2 C5.07179964 3.51928038 5.08392007 5.04167482 5.0625 6.5625 C5.05347656 7.38878906 5.04445313 8.21507812 5.03515625 9.06640625 C5.01775391 10.02353516 5.01775391 10.02353516 5 11 C4.34 11 3.68 11 3 11 C0 4.5 0 4.5 0 0 Z " fill="#EEA686" transform="translate(16,4)"/>
<path d="M0 0 C-0.49230769 6.4 -0.49230769 6.4 -3.0625 9.4375 C-3.701875 9.953125 -4.34125 10.46875 -5 11 C-5.36637589 4.64948454 -5.36637589 4.64948454 -3.625 1.5625 C-2 0 -2 0 0 0 Z " fill="#EF9F7F" transform="translate(36,4)"/>
<path d="M0 0 C1.32 0 2.64 0 4 0 C3.34 2.97 2.68 5.94 2 9 C1.01 8.67 0.02 8.34 -1 8 C-1.125 2.25 -1.125 2.25 0 0 Z " fill="#D1672E" transform="translate(13,27)"/>
<path d="M0 0 C5.445 1.485 5.445 1.485 11 3 C9 5 9 5 7.125 5.046875 C6.42375 4.94890625 5.7225 4.8509375 5 4.75 C3.948125 4.61851563 3.948125 4.61851563 2.875 4.484375 C1 4 1 4 -1 2 C-0.67 1.34 -0.34 0.68 0 0 Z " fill="#DB612D" transform="translate(21,34)"/>
<path d="M0 0 C-0.33 1.32 -0.66 2.64 -1 4 C-2.65 4 -4.3 4 -6 4 C-6 3.34 -6 2.68 -6 2 C-6.99 1.34 -7.98 0.68 -9 0 C-3.375 -1.125 -3.375 -1.125 0 0 Z " fill="#778D47" transform="translate(13,29)"/>
<path d="M0 0 C1.32 0 2.64 0 4 0 C3.67 1.65 3.34 3.3 3 5 C1.68 5.33 0.36 5.66 -1 6 C-0.67 4.02 -0.34 2.04 0 0 Z " fill="#F6EED8" transform="translate(31,31)"/>
<path d="M0 0 C0.33 0.66 0.66 1.32 1 2 C1.66 2.33 2.32 2.66 3 3 C1.515 5.475 1.515 5.475 0 8 C-2.475 7.01 -2.475 7.01 -5 6 C-3.35 4.02 -1.7 2.04 0 0 Z " fill="#D4743E" transform="translate(35,33)"/>
<path d="M0 0 C0.33 0.99 0.66 1.98 1 3 C-0.32 3 -1.64 3 -3 3 C-3.33 3.99 -3.66 4.98 -4 6 C-4 5.34 -4 4.68 -4 4 C-5.65 3.67 -7.3 3.34 -9 3 C-3.2 0 -3.2 0 0 0 Z " fill="#D7B99F" transform="translate(34,28)"/>
<path d="M0 0 C0.33 0.66 0.66 1.32 1 2 C2.32 2 3.64 2 5 2 C5 1.34 5 0.68 5 0 C5.66 0 6.32 0 7 0 C6.8125 1.875 6.8125 1.875 6 4 C3.4375 5.25 3.4375 5.25 1 6 C0.67 4.02 0.34 2.04 0 0 Z " fill="#CBB4A6" transform="translate(14,21)"/>
<path d="M0 0 C0.66 0 1.32 0 2 0 C0.87548273 2.9719385 -0.22293791 5.33440687 -2 8 C-2.66 8 -3.32 8 -4 8 C-2.25 2.25 -2.25 2.25 0 0 Z " fill="#DFDCCD" transform="translate(33,1)"/>
<path d="M0 0 C0.66 0.33 1.32 0.66 2 1 C2.33333333 2.33333333 2.66666667 3.66666667 3 5 C3.66 5.33 4.32 5.66 5 6 C2.69 6 0.38 6 -2 6 C-2 5.34 -2 4.68 -2 4 C-1.34 3.67 -0.68 3.34 0 3 C0 2.01 0 1.02 0 0 Z " fill="#819C4E" transform="translate(5,23)"/>
<path d="M0 0 C0.99 0 1.98 0 3 0 C1.75023244 3.65316671 1.32901247 4.78065836 -2 7 C-2 3.89448334 -1.4606285 2.64738916 0 0 Z " fill="#DFDAC9" transform="translate(35,9)"/>
<path d="M0 0 C0.99 0.33 1.98 0.66 3 1 C3 1.66 3 2.32 3 3 C1.02 3.33 -0.96 3.66 -3 4 C-2.67 3.01 -2.34 2.02 -2 1 C-1.34 0.67 -0.68 0.34 0 0 Z " fill="#F3E8D2" transform="translate(18,33)"/>
</svg>
